<?xml version="1.0" encoding="utf-8"?>
<!-- Generator: Adobe Illustrator 24.0.2, SVG Export Plug-In . SVG Version: 6.00 Build 0)  -->
<svg version="1.1" id="Layer_1" xmlns="http://www.w3.org/2000/svg" xmlns:xlink="http://www.w3.org/1999/xlink" x="0px" y="0px"
	 viewBox="0 0 708.7 708.7" enable-background="new 0 0 708.7 708.7" xml:space="preserve">
<path stroke="#000000" stroke-width="0.75" stroke-miterlimit="10" d="M538.6,680.3H28.3V170.1c0-78.3,63.5-141.7,141.7-141.7h510.2
	v510.2C680.3,616.9,616.9,680.3,538.6,680.3z"/>
<rect x="168.8" y="110.2" fill="#FFFFFF" stroke="#FFFFFF" stroke-miterlimit="10" width="101.4" height="510.1"/>
<g>
	<g id="XMLID_1_">
		<g>
			<path fill="#FFFFFF" d="M347.6,110.2c129.8,0,234.8,112.4,234.8,251.3c0,143.1-105,258.9-234.8,258.9H346v-97.1
				c72.6,0,132.1-62.8,138.7-143.1c0.4-4.9,0.6-9.8,0.6-14.8c0-7.3-0.4-14.5-1.3-21.6c-9.2-77.1-66.7-136.4-136.4-136.4V110.2z"/>
			<rect x="291.5" y="523.3" fill="#FFFFFF" width="33.3" height="97.1"/>
			<rect x="291.5" y="111" fill="#FFFFFF" width="33.3" height="97.1"/>
		</g>
		<g>
			<path fill="none" stroke="#000000" stroke-miterlimit="10" d="M347.6,207.3v-97.1c129.8,0,234.8,112.4,234.8,251.3"/>
			<path fill="none" stroke="#000000" stroke-miterlimit="10" d="M582.4,361.5c0,143.1-105,258.9-234.8,258.9"/>
			<line fill="none" stroke="#000000" stroke-miterlimit="10" x1="346" y1="620.4" x2="346" y2="523.3"/>
			<path fill="none" stroke="#000000" stroke-miterlimit="10" d="M484.7,380.1c-6.6,80.3-66.1,143.1-138.7,143.1"/>
			<path fill="none" stroke="#000000" stroke-miterlimit="10" d="M484.7,380.1c0.4-4.9,0.6-9.8,0.6-14.8"/>
			<path fill="none" stroke="#000000" stroke-miterlimit="10" d="M484,343.7c-9.2-77.1-66.7-136.4-136.4-136.4"/>
			<path fill="none" stroke="#000000" stroke-miterlimit="10" d="M485.3,365.3c0-7.3-0.4-14.5-1.3-21.6"/>
			
				<rect x="291.5" y="111" fill="none" stroke="#000000" stroke-width="0" stroke-linecap="round" stroke-linejoin="round" width="33.3" height="97.1"/>
			
				<rect x="291.5" y="523.3" fill="none" stroke="#000000" stroke-width="0" stroke-linecap="round" stroke-linejoin="round" width="33.3" height="97.1"/>
		</g>
	</g>
</g>
</svg>
